<?xml version="1.0" encoding="utf-8"?>
<!-- Generator: Adobe Illustrator 21.0.0, SVG Export Plug-In . SVG Version: 6.00 Build 0)  -->
<svg version="1.1" id="Layer_1" xmlns="http://www.w3.org/2000/svg" xmlns:xlink="http://www.w3.org/1999/xlink" x="0px" y="0px"
	 width="24px" height="22px" viewBox="0 0 24 22" style="enable-background:new 0 0 24 22;" xml:space="preserve">
<style type="text/css">
	.st0{fill:#A9A9A9;}
</style>
<g>
	<path class="st0" d="M4.4,21.7c-1.1,0-2-0.5-2.7-1.1c-2.1-2.1-2-4.6,0.4-6.9L13.7,2c1-1,2.5-1.7,4-1.7c1.6,0,3,0.5,4.1,1.6l0.4,0.4
		c1.1,1.1,1.6,2.5,1.6,4.1c0,1.5-0.7,3-1.7,4l-8.8,8.8c-0.3,0.3-0.8,0.3-1.1,0s-0.3-0.8,0-1.1L21,9.3c1.6-1.6,1.7-4.4,0.2-6
		l-0.4-0.4c-1.6-1.6-4.4-1.5-6,0.2L3.1,14.7c-1.8,1.8-1.9,3.3-0.4,4.8c1.1,1.1,2.8,0.9,4.4-0.8l8.4-8.4c0.8-0.8,0.9-1.6,0.2-2.3
		c-0.1-0.1-0.5-0.3-1-0.3c-0.3,0-0.8,0.1-1.3,0.5L8,13.9l-1.1-1.1l5.6-5.6c0.6-0.6,1.4-1,2.3-1c0.8,0,1.6,0.3,2,0.7
		c1,1,1.5,2.7-0.2,4.4l-8.4,8.4C6.9,21.2,5.5,21.7,4.4,21.7z"/>
</g>
</svg>
