<?xml version="1.0" encoding="utf-8"?>
<!-- Generator: Adobe Illustrator 21.0.0, SVG Export Plug-In . SVG Version: 6.00 Build 0)  -->
<svg version="1.1" id="Layer_1" xmlns="http://www.w3.org/2000/svg" xmlns:xlink="http://www.w3.org/1999/xlink" x="0px" y="0px"
	 width="88px" height="88px" viewBox="0 0 88 88" style="enable-background:new 0 0 88 88;" xml:space="preserve">
<style type="text/css">
	.st0{fill:#CDCDCD;}
</style>
<g>
	<path class="st0" d="M65.9,20.5c-10.2,1.7-19.5,6.3-27,13.4c-7,0-13.6,2.8-18.6,7.8c-0.2,0.2-0.4,0.4-0.6,0.6
		c-0.3,0.3-0.4,0.8-0.4,1.2s0.3,0.8,0.7,1l7.9,4.4c-0.3,0.5-0.5,1.1-0.7,1.6C27,51,27.2,51.6,27.6,52l8.4,8.4c0.3,0.3,0.6,0.4,1,0.4
		c0.2,0,0.4,0,0.6-0.1c0.5-0.2,1.1-0.5,1.6-0.7l4.4,7.9c0.2,0.4,0.6,0.6,1,0.7c0.1,0,0.1,0,0.2,0c0.4,0,0.7-0.1,1-0.4
		c0.2-0.2,0.4-0.4,0.6-0.6c5-5,7.7-11.6,7.8-18.6c7.1-7.5,11.8-16.8,13.4-27c0.1-0.5-0.1-0.9-0.4-1.2C66.8,20.6,66.3,20.4,65.9,20.5
		z M23.1,42.9c3.6-3.3,8-5.3,12.8-5.9c-2.6,2.9-4.8,6-6.6,9.4L23.1,42.9z M37.3,57.7l-7-7c2.4-5.2,5.7-9.8,9.7-13.9
		c4.1-4.1,8.7-7.3,13.8-9.7l7.1,7.1c-2.4,5.1-5.6,9.7-9.7,13.8C47.1,52.1,42.4,55.3,37.3,57.7z M45.1,64.9l-3.4-6.2
		c3.4-1.8,6.5-4.1,9.4-6.6C50.4,56.8,48.4,61.3,45.1,64.9z M62,31.4L56.6,26c2.5-1,5.1-1.8,7.8-2.3C63.8,26.3,63,28.9,62,31.4z"/>
	<path class="st0" d="M55.4,40.2c2.1-2.1,2.1-5.5,0-7.5c-1-1-2.3-1.6-3.8-1.6s-2.8,0.6-3.8,1.6c-1,1-1.6,2.3-1.6,3.8
		s0.6,2.8,1.6,3.8c1,1,2.3,1.6,3.8,1.6S54.4,41.2,55.4,40.2z M49.1,36.4c0-0.7,0.3-1.3,0.7-1.8c0.5-0.5,1.1-0.7,1.8-0.7
		c0.7,0,1.3,0.3,1.8,0.7c1,1,1,2.6,0,3.5c-0.9,0.9-2.6,0.9-3.5,0C49.4,37.7,49.1,37.1,49.1,36.4z"/>
	<path class="st0" d="M27.7,60.3c-0.6-0.6-1.5-0.6-2,0l-5.2,5.2c-0.6,0.6-0.6,1.5,0,2c0.3,0.3,0.6,0.4,1,0.4s0.7-0.1,1-0.4l5.2-5.2
		C28.3,61.7,28.3,60.8,27.7,60.3z"/>
	<path class="st0" d="M21.8,61.6l5.2-5.2c0.6-0.6,0.6-1.5,0-2c-0.6-0.6-1.5-0.6-2,0l-5.2,5.2c-0.6,0.6-0.6,1.5,0,2
		c0.3,0.3,0.6,0.4,1,0.4S21.5,61.8,21.8,61.6z"/>
	<path class="st0" d="M31.6,61l-5.2,5.2c-0.6,0.6-0.6,1.5,0,2c0.3,0.3,0.6,0.4,1,0.4s0.7-0.1,1-0.4l5.2-5.2c0.6-0.6,0.6-1.5,0-2
		C33.1,60.4,32.2,60.4,31.6,61z"/>
	<path class="st0" d="M44,0.5C20,0.5,0.5,20,0.5,44S20,87.5,44,87.5S87.5,68,87.5,44S68,0.5,44,0.5z M44,84.7
		C21.6,84.7,3.3,66.4,3.3,44S21.6,3.3,44,3.3c22.4,0,40.7,18.2,40.7,40.7S66.4,84.7,44,84.7z"/>
</g>
</svg>
