<?xml version="1.0" encoding="utf-8"?>
<!-- Generator: Adobe Illustrator 21.0.0, SVG Export Plug-In . SVG Version: 6.00 Build 0)  -->
<svg version="1.1" id="Layer_1" xmlns="http://www.w3.org/2000/svg" xmlns:xlink="http://www.w3.org/1999/xlink" x="0px" y="0px"
	 width="88px" height="88px" viewBox="0 0 88 88" style="enable-background:new 0 0 88 88;" xml:space="preserve">
<style type="text/css">
	.st0{fill:#CDCDCD;}
</style>
<g>
	<g>
		<path class="st0" d="M44,87.5C20,87.5,0.5,68,0.5,44S20,0.5,44,0.5S87.5,20,87.5,44S68,87.5,44,87.5z M44,3.3
			C21.6,3.3,3.3,21.6,3.3,44S21.6,84.7,44,84.7c22.4,0,40.7-18.2,40.7-40.7S66.4,3.3,44,3.3z"/>
	</g>
	<g>
		<g>
			<path class="st0" d="M43.9,72.4c-0.3,0-0.5-0.1-0.7-0.2c-14.1-8.6-22.5-23.5-22.5-40c0-1,0-2.1,0.1-3.2c0-0.7,0.7-1.3,1.4-1.3H26
				c1.9,0,4-1.2,6.3-2.5c3.2-1.8,6.8-3.9,11.5-3.9c4.4,0,8.1,2,11.4,3.8c2.5,1.3,4.8,2.6,6.8,2.6h3.6c0.7,0,1.4,0.6,1.4,1.3
				c0.1,1.1,0.1,2.1,0.1,3.2c0,16.5-8.4,31.5-22.5,40C44.4,72.3,44.1,72.4,43.9,72.4z M23.4,30.5c0,0.5,0,1.1,0,1.6
				c0,15.2,7.6,29,20.4,37.1c12.8-8.1,20.4-21.9,20.4-37.1c0-0.5,0-1.1,0-1.6H62c-2.7,0-5.3-1.4-8.1-2.9c-3.1-1.7-6.4-3.5-10-3.5
				c-4,0-7.1,1.8-10.1,3.5c-2.6,1.5-5,2.9-7.7,2.9H23.4z"/>
		</g>
		<g>
			<path class="st0" d="M41.2,55.6c-0.4,0-0.7-0.1-1-0.4L31,46c-0.6-0.6-0.6-1.5,0-2c0.6-0.6,1.5-0.6,2,0l8.2,8.2l15.2-15.5
				c0.5-0.6,1.4-0.6,2,0c0.6,0.5,0.6,1.4,0,2L42.3,55.2C42,55.5,41.6,55.6,41.2,55.6C41.3,55.6,41.2,55.6,41.2,55.6z"/>
		</g>
	</g>
</g>
</svg>
