<?xml version="1.0" encoding="utf-8"?>
<!-- Generator: Adobe Illustrator 21.0.0, SVG Export Plug-In . SVG Version: 6.00 Build 0)  -->
<svg version="1.1" id="Layer_1" xmlns="http://www.w3.org/2000/svg" xmlns:xlink="http://www.w3.org/1999/xlink" x="0px" y="0px"
	 width="88px" height="88px" viewBox="0 0 88 88" style="enable-background:new 0 0 88 88;" xml:space="preserve">
<style type="text/css">
	.st0{fill:#CDCDCD;}
</style>
<g>
	<path class="st0" d="M44,0.5C20,0.5,0.5,20,0.5,44S20,87.5,44,87.5S87.5,68,87.5,44S68,0.5,44,0.5z M44,84.7
		C21.6,84.7,3.3,66.4,3.3,44S21.6,3.3,44,3.3S84.7,21.6,84.7,44S66.4,84.7,44,84.7z"/>
	<path class="st0" d="M77.8,52.7L59.9,23.9c-0.2-0.3-0.6-0.6-0.9-0.6l-7.4-1.4v-4.7c0-0.8-0.6-1.4-1.4-1.4H37.7
		c-0.8,0-1.4,0.6-1.4,1.4v4.7l-7.4,1.4c-0.4,0.1-0.7,0.3-0.9,0.6L10.1,52.7c-0.4,0.7-0.2,1.5,0.4,1.9l7.3,4.7c0.7,0.4,1.5,0.2,2-0.4
		L29,44.6v22.4c0,0.8,0.6,1.4,1.4,1.4h26.9c0.8,0,1.4-0.6,1.4-1.4V44.6l9.3,14.3c0.4,0.7,1.3,0.8,2,0.4l7.3-4.7
		C78,54.2,78.2,53.4,77.8,52.7z M30,26l7.9-1.5c0.7-0.1,1.2-0.7,1.2-1.4v-4.4h9.7v4.4c0,0.7,0.5,1.3,1.2,1.4l7.9,1.5l1.9,3H28.1
		L30,26z M69.7,56.2L58.6,39.1c-0.3-0.5-1-0.8-1.6-0.6c-0.6,0.2-1,0.7-1,1.4v25.8H31.9V39.9c0-0.6-0.4-1.2-1-1.4
		c-0.6-0.2-1.2,0.1-1.6,0.6L18.1,56.2L13.2,53l13.2-21.2c0,0,0.1,0,0.1,0H61c0.2,0,0.3,0,0.4-0.1L74.6,53L69.7,56.2z"/>
	<path class="st0" d="M52.7,43.9h-1.5l1.3-1.9c0.4-0.6,0.3-1.5-0.4-2c-0.6-0.4-1.5-0.3-2,0.4l-2.4,3.5h-2.5v-2.5l3.5-2.4
		c0.6-0.4,0.8-1.3,0.4-2c-0.4-0.6-1.3-0.8-2-0.4L45.3,38v-1.5c0-0.8-0.6-1.4-1.4-1.4s-1.4,0.6-1.4,1.4V38l-1.9-1.3
		c-0.6-0.4-1.5-0.3-2,0.4c-0.4,0.6-0.3,1.5,0.4,2l3.5,2.4v2.5H40l-2.4-3.5c-0.4-0.6-1.3-0.8-2-0.4c-0.6,0.4-0.8,1.3-0.4,2l1.3,1.9
		h-1.5c-0.8,0-1.4,0.6-1.4,1.4s0.6,1.4,1.4,1.4h1.5l-1.3,1.9c-0.4,0.6-0.3,1.5,0.4,2c0.2,0.2,0.5,0.3,0.8,0.3c0.5,0,0.9-0.2,1.2-0.6
		l2.4-3.5h2.5v2.5L39,51.6c-0.6,0.4-0.8,1.3-0.4,2c0.3,0.4,0.7,0.6,1.2,0.6c0.3,0,0.6-0.1,0.8-0.3l1.9-1.3v1.5
		c0,0.8,0.6,1.4,1.4,1.4s1.4-0.6,1.4-1.4v-1.5l1.9,1.3c0.2,0.2,0.5,0.3,0.8,0.3c0.5,0,0.9-0.2,1.2-0.6c0.4-0.6,0.3-1.5-0.4-2
		l-3.5-2.4v-2.5h2.5l2.4,3.5c0.3,0.4,0.7,0.6,1.2,0.6c0.3,0,0.6-0.1,0.8-0.3c0.6-0.4,0.8-1.3,0.4-2l-1.3-1.9h1.5
		c0.8,0,1.4-0.6,1.4-1.4S53.5,43.9,52.7,43.9z"/>
</g>
</svg>
