<?xml version="1.0" encoding="utf-8"?>
<!-- Generator: Adobe Illustrator 21.0.0, SVG Export Plug-In . SVG Version: 6.00 Build 0)  -->
<svg version="1.1" id="Layer_1" xmlns="http://www.w3.org/2000/svg" xmlns:xlink="http://www.w3.org/1999/xlink" x="0px" y="0px"
	 width="88px" height="88px" viewBox="0 0 88 88" style="enable-background:new 0 0 88 88;" xml:space="preserve">
<style type="text/css">
	.st0{fill:#CDCDCD;}
</style>
<g>
	<path class="st0" d="M44,0.5C20,0.5,0.5,20,0.5,44S20,87.5,44,87.5S87.5,68,87.5,44S68,0.5,44,0.5z M44,84.7
		C21.6,84.7,3.3,66.4,3.3,44S21.6,3.3,44,3.3c22.4,0,40.7,18.2,40.7,40.7S66.4,84.7,44,84.7z"/>
	<path class="st0" d="M69.3,52.3c-9.9,0-18.8,5.1-23.8,13.3V53.7C55.2,53,63,44.9,63,34.9c0-3.1-0.8-6.3-2.3-9
		c-0.2-0.4-0.8-0.7-1.3-0.7c-0.1,0-0.2,0-0.2,0c-2,0-4,0.3-5.8,0.9c-1.7-4.1-4.8-7.5-8.8-9.5c-0.4-0.2-0.9-0.2-1.3,0
		c-3.9,2-7,5.3-8.7,9.3c-1.8-0.6-3.8-1-5.8-1.1c-0.6,0-1,0.3-1.3,0.7c-1.7,2.9-2.5,6.1-2.5,9.4c0,9.9,7.8,18.1,17.5,18.7v11.4
		C37.5,57.3,28.7,52.3,19,52.3l-0.4,0c-0.5,0-0.9,0.2-1.1,0.6c-0.3,0.4-0.3,0.8-0.2,1.3C21.2,65.6,31.9,73.3,44,73.3l0.1,0
		c0,0,0,0,0,0c0,0,0.1,0,0.1,0l0.1,0c0,0,0,0,0,0c11.9-0.1,22.5-7.8,26.3-19.1c0.1-0.4,0-0.9-0.2-1.3C70.2,52.5,69.7,52.3,69.3,52.3
		z M60.1,34.9c0,8.6-6.8,15.6-15.4,16c-0.1-0.3-0.3-0.6-0.4-0.9c-0.1-0.2-0.2-0.4-0.2-0.6c-0.1-0.3-0.2-0.7-0.3-1
		c-0.1-0.3-0.2-0.5-0.2-0.8c-0.1-0.3-0.1-0.6-0.2-0.9c0-0.3-0.1-0.6-0.1-0.9c-0.1-0.6-0.1-1.2-0.1-1.8c0-0.5,0-0.9,0.1-1.4
		c0-0.1,0-0.2,0-0.4c0-0.4,0.1-0.9,0.2-1.3c0-0.1,0.1-0.2,0.1-0.3c0.1-0.3,0.2-0.7,0.3-1c0-0.1,0.1-0.3,0.1-0.4
		c0.1-0.4,0.3-0.8,0.4-1.2c0-0.1,0.1-0.2,0.1-0.3c0.2-0.4,0.3-0.7,0.5-1c0-0.1,0.1-0.2,0.1-0.2c2.6-4.9,7.6-8.2,13.5-8.4
		C59.6,30.2,60.1,32.5,60.1,34.9z M44,19.5c3.1,1.7,5.5,4.5,6.8,7.7c-2.7,1.4-5,3.3-6.8,5.8c-1.7-2.5-4.1-4.6-6.7-6
		C38.6,23.8,40.9,21.2,44,19.5z M27.9,34.9c0-2.5,0.6-5,1.8-7.3c5.3,0.4,10,3.4,12.7,7.9c-0.2,0.3-0.3,0.7-0.5,1
		c0,0.1-0.1,0.1-0.1,0.2c-0.2,0.4-0.3,0.9-0.5,1.3c0,0.1-0.1,0.3-0.1,0.4c-0.1,0.5-0.3,1-0.4,1.4c0,0.1-0.1,0.3-0.1,0.4
		c-0.1,0.5-0.2,1-0.2,1.5c0,0.1,0,0.2,0,0.3c-0.1,0.6-0.1,1.1-0.1,1.7c0,0.5,0,1,0.1,1.5c0,0.2,0,0.3,0,0.5c0,0.4,0.1,0.8,0.2,1.1
		c0,0.1,0,0.3,0.1,0.4c0.1,0.4,0.2,0.9,0.3,1.3c0,0.2,0.1,0.3,0.1,0.5c0.1,0.4,0.3,0.9,0.4,1.3c0,0,0,0.1,0,0.1
		C33.9,49.6,27.9,42.9,27.9,34.9z M20.8,55.2c9.5,0.6,17.7,6.5,21.5,15.2C32.8,69.8,24.5,63.9,20.8,55.2z M46.1,70.4
		c3.7-8.6,11.8-14.4,21.1-15.2C63.5,63.8,55.4,69.7,46.1,70.4z"/>
	<path class="st0" d="M46.1,48c0.2,0.6,0.8,1,1.3,1c0.2,0,0.3,0,0.5-0.1c3.6-1.3,6.5-3.6,8.9-7.3c0.4-0.7,0.3-1.5-0.4-2
		c-0.7-0.4-1.5-0.2-2,0.4c-2,3.1-4.5,5.1-7.5,6.1C46.2,46.5,45.8,47.3,46.1,48z"/>
</g>
</svg>
