<?xml version="1.0" encoding="utf-8"?>
<!-- Generator: Adobe Illustrator 21.0.0, SVG Export Plug-In . SVG Version: 6.00 Build 0)  -->
<svg version="1.1" id="Layer_1" xmlns="http://www.w3.org/2000/svg" xmlns:xlink="http://www.w3.org/1999/xlink" x="0px" y="0px"
	 width="88px" height="88px" viewBox="0 0 88 88" style="enable-background:new 0 0 88 88;" xml:space="preserve">
<style type="text/css">
	.st0{fill:#CDCDCD;}
</style>
<g>
	<g>
		<path class="st0" d="M44,87.5C20,87.5,0.5,68,0.5,44S20,0.5,44,0.5S87.5,20,87.5,44S68,87.5,44,87.5z M44,3.3
			C21.6,3.3,3.3,21.6,3.3,44S21.6,84.7,44,84.7S84.7,66.4,84.7,44S66.4,3.3,44,3.3z"/>
	</g>
	<g>
		<path class="st0" d="M19.4,60.3c-0.5,0-0.9-0.2-1.2-0.6c-0.4-0.6-8.8-13.8-0.1-31.2c0.3-0.5,0.8-0.8,1.3-0.8
			c0.6,0,13.5,0.7,21.2,9.3c1.3-0.2,3.8-0.5,6.2,0c1.9-2.1,8.3-8,21.8-9.2c0.5-0.1,1.1,0.2,1.3,0.7c0.3,0.6,8.4,14.3,0.1,31.2
			c-0.2,0.5-0.8,0.8-1.3,0.8c-0.6,0-14.4-0.5-21.7-9.2c-1.2,0.3-3.4,0.5-6.2,0c-1.7,2.2-7.3,7.8-21.3,9.2
			C19.5,60.3,19.4,60.3,19.4,60.3z M47.6,48.1c0.4,0,0.9,0.2,1.1,0.6c5.3,7,16,8.5,19.2,8.7c6-13,1.5-23.9,0.1-26.8
			c-14,1.5-19.4,8.6-19.4,8.7c-0.3,0.5-1,0.7-1.5,0.5c-2.8-0.8-6.5,0-6.6,0c-0.5,0.1-1-0.1-1.4-0.5c-5.8-6.9-15.7-8.5-18.8-8.8
			c-6.2,13.3-1.6,24-0.1,26.8C35.2,55.6,39,49,39,48.9c0.3-0.6,1-0.9,1.6-0.7c3.8,1,6.5,0,6.5,0C47.3,48.2,47.4,48.1,47.6,48.1z"/>
	</g>
</g>
</svg>
