<svg xmlns="http://www.w3.org/2000/svg" viewBox="0 0 72.15 71.46"><defs><style>.cls-1,.cls-2{fill:none;stroke:#a7a9ac;stroke-linejoin:round;stroke-width:2.83px;}.cls-1{stroke-linecap:round;}</style></defs><title>calculator</title><g id="Слой_2" data-name="Слой 2"><g id="Layer_1" data-name="Layer 1"><path class="cls-1" d="M33.77,62.93H7.09a5.68,5.68,0,0,1-5.67-5.67V7.09A5.68,5.68,0,0,1,7.09,1.42h41.1a5.68,5.68,0,0,1,5.67,5.67V32.17"/><rect class="cls-2" x="8.79" y="8.25" width="37.71" height="11.39"/><rect class="cls-2" x="8.79" y="26.6" width="8.15" height="5.58"/><rect class="cls-2" x="23.57" y="26.6" width="8.15" height="5.58"/><rect class="cls-2" x="38.34" y="26.6" width="8.15" height="5.58"/><rect class="cls-2" x="8.79" y="38.49" width="8.15" height="5.58"/><rect class="cls-2" x="23.57" y="38.49" width="8.15" height="5.58"/><rect class="cls-2" x="8.79" y="50.39" width="8.15" height="5.58"/><rect class="cls-2" x="23.57" y="50.39" width="8.15" height="5.58"/><path class="cls-1" d="M56.47,42.88a6.2,6.2,0,0,1,0,12.39H46"/><polyline class="cls-1" points="56.36 42.88 51.49 42.88 51.49 64.73"/><line class="cls-1" x1="46.02" y1="59.99" x2="58.61" y2="59.99"/><circle class="cls-1" cx="53.86" cy="53.17" r="16.87"/></g></g></svg>