<?xml version="1.0" encoding="utf-8"?>
<!-- Generator: Adobe Illustrator 21.0.0, SVG Export Plug-In . SVG Version: 6.00 Build 0)  -->
<svg version="1.1" id="Layer_1" xmlns="http://www.w3.org/2000/svg" xmlns:xlink="http://www.w3.org/1999/xlink" x="0px" y="0px"
	 width="69px" height="63px" viewBox="0 0 69 63" style="enable-background:new 0 0 69 63;" xml:space="preserve">
<style type="text/css">
	.st0{fill:#A9A9A9;}
</style>
<g>
	<path class="st0" d="M37.7,0.2C21.3,0.2,7.8,12.9,6.5,29l-4.4-4.4c-0.5-0.5-1.3-0.5-1.8,0c-0.5,0.5-0.5,1.3,0,1.8l6.8,6.8
		c0.2,0.2,0.6,0.4,0.9,0.4s0.6-0.1,0.9-0.4l6.8-6.8c0.5-0.5,0.5-1.3,0-1.8c-0.5-0.5-1.3-0.5-1.8,0L9,29.5
		c1-14.9,13.5-26.8,28.7-26.8c15.9,0,28.8,12.9,28.8,28.8S53.6,60.3,37.7,60.3c-5.8,0-11.4-1.7-16.2-5c1.8-2.1,2.8-4.8,2.8-7.8
		c0-6.7-5.5-12.2-12.2-12.2C5.5,35.3,0,40.7,0,47.5c0,6.7,5.5,12.2,12.2,12.2c2.8,0,5.4-1,7.5-2.6c5.3,3.8,11.5,5.8,18.1,5.8
		C55,62.8,69,48.8,69,31.5S55,0.2,37.7,0.2z M2.5,47.5c0-5.3,4.3-9.6,9.6-9.6c5.3,0,9.6,4.3,9.6,9.6c0,5.3-4.3,9.6-9.6,9.6
		C6.9,57.1,2.5,52.8,2.5,47.5z"/>
	<path class="st0" d="M31.6,27.3c2.9-4.6,0.3-7.1-1.2-8.7l-0.6-0.6c-0.9-0.9-2-2.1-3.8-2.1c0,0,0,0,0,0c-1.5,0-3,0.8-4.7,2.6
		c-7.5,7.5,1.7,18.8,5.3,22.6l1.5,1.5h0c2.8,2.6,9.5,8.2,15.8,8.2c2.4,0,4.7-0.8,6.8-2.9c1.7-1.7,2.6-3.3,2.6-4.7
		c0-1.8-1.2-2.9-2.1-3.8l-0.6-0.6c-1.5-1.5-4-4.1-8.7-1.2c-0.6,0.4-1.1,0.7-1.6,1.1c-2.4,1.7-3.1,2.2-7.6-2.3
		c-4.5-4.5-4-5.2-2.3-7.6C30.9,28.4,31.3,27.9,31.6,27.3z M29.5,26c-0.3,0.5-0.7,1-1,1.5c-2.4,3.4-2.8,5.3,2.6,10.9
		c5.5,5.4,7.4,5,10.8,2.6c0.4-0.3,0.9-0.6,1.5-1c2.9-1.8,4-0.6,5.5,0.8l0.6,0.6c0.8,0.8,1.3,1.3,1.3,2c0,0.7-0.6,1.7-1.8,2.9
		c-6.1,6.1-16.4-2.8-19.4-5.7l-0.1-0.1l-0.6-0.6c-2.9-3-11.9-13.3-5.7-19.4c1.2-1.2,2.2-1.8,2.9-1.8c0,0,0,0,0,0
		c0.6,0,1.2,0.5,2,1.3l0.6,0.6C30.1,22,31.3,23.1,29.5,26z"/>
	<path class="st0" d="M37.7,24.8c3.7,0,6.7,3,6.7,6.7c0,0.7,0.6,1.3,1.3,1.3s1.3-0.6,1.3-1.3c0-5.1-4.2-9.3-9.3-9.3
		c-0.7,0-1.3,0.6-1.3,1.3S37,24.8,37.7,24.8z"/>
	<path class="st0" d="M37.7,18.4c7.2,0,13.1,5.9,13.1,13.1c0,0.7,0.6,1.3,1.3,1.3s1.3-0.6,1.3-1.3c0-8.6-7-15.6-15.6-15.6
		c-0.7,0-1.3,0.6-1.3,1.3S37,18.4,37.7,18.4z"/>
	<path class="st0" d="M37.7,11.8c10.9,0,19.7,8.8,19.7,19.7c0,0.7,0.6,1.3,1.3,1.3s1.3-0.6,1.3-1.3c0-12.3-10-22.2-22.2-22.2
		c-0.7,0-1.3,0.6-1.3,1.3S37,11.8,37.7,11.8z"/>
	<path class="st0" d="M17.9,46.2h-4.4v-6c0-0.7-0.6-1.3-1.3-1.3s-1.3,0.6-1.3,1.3v7.2c0,0.7,0.6,1.3,1.3,1.3h5.7
		c0.7,0,1.3-0.6,1.3-1.3S18.6,46.2,17.9,46.2z"/>
	<path class="st0" d="M12.2,53.1c-0.7,0-1.3,0.6-1.3,1.3v0.4c0,0.7,0.6,1.3,1.3,1.3s1.3-0.6,1.3-1.3v-0.4
		C13.4,53.6,12.9,53.1,12.2,53.1z"/>
	<path class="st0" d="M5.5,46.2H5.1c-0.7,0-1.3,0.6-1.3,1.3s0.6,1.3,1.3,1.3h0.4c0.7,0,1.3-0.6,1.3-1.3S6.2,46.2,5.5,46.2z"/>
</g>
</svg>
