<?xml version="1.0" encoding="utf-8"?>
<!-- Generator: Adobe Illustrator 21.0.0, SVG Export Plug-In . SVG Version: 6.00 Build 0)  -->
<svg version="1.1" id="Layer_1" xmlns="http://www.w3.org/2000/svg" xmlns:xlink="http://www.w3.org/1999/xlink" x="0px" y="0px"
	 width="25px" height="25px" viewBox="0 0 25 25" style="enable-background:new 0 0 25 25;" xml:space="preserve">
<style type="text/css">
	.st0{fill:#A9A9A9;}
</style>
<g>
	<path class="st0" d="M12.5,0.4C5.8,0.4,0.4,5.8,0.4,12.5s5.4,12.1,12.1,12.1s12.1-5.4,12.1-12.1S19.2,0.4,12.5,0.4z M12.5,22.8
		c-5.7,0-10.3-4.6-10.3-10.3S6.8,2.2,12.5,2.2s10.3,4.6,10.3,10.3S18.2,22.8,12.5,22.8z"/>
	<path class="st0" d="M18.3,11.6h-4.9V5c0-0.5-0.4-0.9-0.9-0.9S11.6,4.6,11.6,5v7.5c0,0.5,0.4,0.9,0.9,0.9h5.8
		c0.5,0,0.9-0.4,0.9-0.9S18.8,11.6,18.3,11.6z"/>
	<path class="st0" d="M12.5,18.7c-0.5,0-0.9,0.4-0.9,0.9V21c0,0.5,0.4,0.9,0.9,0.9s0.9-0.4,0.9-0.9v-1.4
		C13.4,19.1,13,18.7,12.5,18.7z"/>
	<path class="st0" d="M5.6,11.6H4.1c-0.5,0-0.9,0.4-0.9,0.9s0.4,0.9,0.9,0.9h1.4c0.5,0,0.9-0.4,0.9-0.9S6.1,11.6,5.6,11.6z"/>
</g>
</svg>
