<?xml version="1.0" encoding="utf-8"?>
<!-- Generator: Adobe Illustrator 21.0.0, SVG Export Plug-In . SVG Version: 6.00 Build 0)  -->
<svg version="1.1" id="Layer_1" xmlns="http://www.w3.org/2000/svg" xmlns:xlink="http://www.w3.org/1999/xlink" x="0px" y="0px"
	 width="262px" height="42px" viewBox="0 0 262 42" style="enable-background:new 0 0 262 42;" xml:space="preserve">
<style type="text/css">
	.st0{fill-rule:evenodd;clip-rule:evenodd;fill:#EC1C24;}
	.st1{fill-rule:evenodd;clip-rule:evenodd;fill:#FFFFFF;}
	.st2{fill-rule:evenodd;clip-rule:evenodd;fill:#231F20;stroke:#0B1014;stroke-width:7.742510e-02;stroke-miterlimit:10;}
	.st3{fill-rule:evenodd;clip-rule:evenodd;fill:#231F20;stroke:#0B1014;stroke-width:0.1742;stroke-miterlimit:10;}
</style>
<g>
	<path class="st0" d="M14.1,17.1H6.7v0.6H5.9v-1.3h7.7h0.2H14l0.1,0V17.1z M14.2,24H6.7v0.8H5.9v-1.6h7.7h0.2h0.2l0.1,0l0,0.1V24z
		 M20.3,21.1L20.3,21.1c0.8,1,1.2,2.1,1.2,3.4v2.2v0.3c-0.3,3.7-3.6,4.5-6.4,4.5H0v-0.7h14.2c2.9,0,6.2-0.8,6.4-4.5V26v-2.2
		c0-1.2-0.4-2.4-1.3-3.3l0.1-0.1c0.7-0.8,1-1.8,1-2.8v-2.1c0-1.4-0.4-2.4-1-3.1c1.1,0.7,1.8,2,1.8,3.9v2.1
		C21.4,19.3,21,20.3,20.3,21.1L20.3,21.1z M26.4,31.4v-0.7h6l0-19.3h0.8l0,20H26.4z M52.7,17.3h-7.6v0.2h-0.8v-0.9h8.4V17.3z
		 M58.1,19c1.5,1,1.9,2.7,1.9,4.6V26v0.3l0,0.3c-0.2,3.2-2.2,4.8-5.7,4.8H43.8c-2.1,0-3.6-0.5-4.6-1.6c0.9,0.6,2.2,0.9,3.7,0.9h10.7
		c3.4,0,5.5-1.6,5.7-4.8v-0.3v-0.3v-2.4C59.2,21.4,59,20,58.1,19L58.1,19z M40.6,23.4c-0.3-0.2-0.5-0.4-0.7-0.6
		c0.4,0.2,0.8,0.4,1.3,0.6l0.3,0.1l0,0H40.6z M58,12.3c0.5,0.3,0.8,0.7,1.2,1.2c0.5,1,0.7,2,0.7,3.1v1.8h-2.3
		c-0.4-0.3-0.9-0.5-1.5-0.7l-0.1,0H59v-1.8c0-1.1-0.2-2.1-0.7-3.1C58.2,12.6,58.1,12.5,58,12.3L58,12.3z M44.4,24.3v0.4h-0.8v-1.1h0
		h9.3v0.7H44.4L44.4,24.3z M79,17.3h-7.6v0.2h-0.8v-0.9H79V17.3z M84.5,19c1.6,1,1.9,2.7,1.9,4.6V26c0,1-0.1,1.9-0.4,2.8
		c-0.9,2.2-3.1,2.6-5.3,2.6H70.1c-2.1,0-3.6-0.5-4.6-1.6c0.9,0.6,2.2,0.9,3.8,0.9h10.6c2.2,0,4.3-0.4,5.2-2.6
		c0.3-0.9,0.4-1.8,0.5-2.8v-2.4C85.6,21.4,85.4,20,84.5,19L84.5,19z M66.9,23.4c-0.3-0.2-0.5-0.4-0.7-0.6c0.4,0.2,0.8,0.4,1.3,0.6
		l0.3,0.1l0,0H66.9z M84.3,12.4c1.2,0.8,1.9,2.1,1.9,4.2v1.7l-2.3,0c-0.4-0.3-0.9-0.5-1.5-0.7l0,0l3-0.1v-1.7
		C85.3,14.3,84.9,13.2,84.3,12.4L84.3,12.4z M70.6,24.3l0,0.4h-0.8l-0.1-1.1h0.2h9.3v0.7h-8.5H70.6z M92.5,31.4v-0.7h19.7v-5.3h0.8
		v6H92.5z M112,11.5h0.8v5.7H99.3v0.3h-0.8v-1H112V11.5z M106.3,18.2h0.8V24h-7.9v0.7h-0.8v-1.5h7.9V18.2z M163.9,17.3v14.1h-6.8
		v-0.7h6V16.6h7.9v-5.1h0.8v5.9H163.9z M156.3,17.3h-7.1v-0.7h7.1V17.3z M188.9,17.2h-7.2v1.3h-0.8v-2h7.6h0.2l0.2,0h0V17.2z
		 M196.4,16.2v4c-0.1,2.3-1,4-3.7,4.6l-0.1,0l-0.8-0.7l0.1,0c2.6-0.5,3.6-2.3,3.7-4.6v-4c0-1.4-0.4-2.4-1-3.1
		C195.7,13.1,196.3,14.3,196.4,16.2L196.4,16.2z M199.8,30.7l0.9,0.7h-10.2l-0.8-0.7H199.8z M183.5,25h-1.8v6.5H175v-0.7h5.9v-6.5
		h1.8L183.5,25z M201.7,31.4v-0.7h6l0-19.3h0.8l0,20H201.7z M226,17.3h-7.6v0.2h-0.8v-0.9h8.4V17.3z M231.4,19
		c1.4,0.9,1.8,2.4,1.9,4.3l0,0.3V26c-0.1,3.7-1.4,5.4-5.7,5.5H217c-2.1,0-3.6-0.5-4.6-1.6c0.9,0.6,2.2,0.9,3.7,0.9h10.7
		c4.3,0,5.6-1.8,5.7-5.4v-2.4v-0.3C232.5,21.1,232.2,19.9,231.4,19L231.4,19z M213.9,23.4c-0.3-0.2-0.5-0.4-0.7-0.7
		c0.4,0.3,0.9,0.5,1.6,0.6l0.2,0H213.9z M231.2,12.4c1.2,0.8,1.9,2.1,1.9,4.2v1.8h-2.3c-0.4-0.3-0.9-0.5-1.5-0.7l-0.1,0h3.1v-1.8
		C232.2,14.3,231.9,13.2,231.2,12.4L231.2,12.4z M217.8,24.3l0,0.4h-0.9l0.1-1.1h9.2v0.7H217.8z M247.4,19.6l-0.8,1.5h-1.2l1.4-2.6
		L247.4,19.6z M233.8,31.4l0.4-0.7h6l2-3.8h9.2l0.4,0.7H243l-2,3.8H233.8z M250.2,11.5h0.4l11.5,20h-7.7l-0.4-0.7h7.3L250.2,11.5z
		 M150.6,7.9l-5.8,5.8l-3.4,3.4c-0.3-0.3-0.5-0.5-0.8-0.7L144,13l5.7-5.8c-0.3-0.3-0.6-0.6-0.9-0.8C149.4,6.9,150,7.4,150.6,7.9
		L150.6,7.9z M140.2,16.1c-1.9-1.6-3.9-2.4-6.8-1.8c-3.3,0.9-5.4,3.7-5.5,7.1c0.1,2,0.8,3.8,2.1,5.1c-1.7-1.3-2.8-3.4-2.9-5.8
		c0.1-3.4,2.2-6.2,5.5-7.1C135.9,12.8,138,14,140.2,16.1L140.2,16.1z M141.2,25.5c0.2-0.2,0.4-0.4,0.6-0.6l4.4,4.4l0,0l4.9,4.9
		c-5,4.9-9.8,7.6-17,7.5c-4.7-0.4-8.8-2-12.1-4.9l0.2,0.1l0.8,0.6L124,38l0.8,0.5l0.9,0.5l0.9,0.4l0.9,0.4l0.9,0.3l1,0.3l1,0.2
		l1,0.2l1,0.1l1,0.1l1,0h0.5l0.5,0l0.5,0l0.5,0l0.5-0.1l0.5-0.1l0.5-0.1l0.5-0.1l0.5-0.1l0.5-0.1l0.5-0.1l0.5-0.1l0.5-0.2l0.5-0.2
		l0.5-0.2l0.5-0.2l0.5-0.2l0.5-0.2l0.4-0.2l0.4-0.2l0.5-0.2l0.4-0.3l0.4-0.3l0.4-0.3l0.4-0.3l0.4-0.3l0.4-0.3l0.4-0.3l0.4-0.3
		l0.4-0.3l0.4-0.3l1.3-1.3l-4.8-4.9l0,0L141.2,25.5z"/>
	<path class="st1" d="M149.7,7.2l-9.2,9.2c-2.4-2.3-4.5-3.6-7.9-2.8c-3.3,0.9-5.4,3.7-5.5,7.1c0.1,3.9,3,7,6.9,7.3
		c2.8,0.1,4.5-1.1,6.5-3l4.3,4.3l0,0l4.8,4.9l-1.3,1.3l-0.4,0.3l-0.4,0.3l-0.4,0.3l-0.4,0.3l-0.4,0.3l-0.4,0.3l-0.4,0.3l-0.4,0.3
		l-0.4,0.3l-0.4,0.3l-0.5,0.2l-0.4,0.2l-0.4,0.2l-0.5,0.2l-0.5,0.2l-0.5,0.2l-0.5,0.2l-0.5,0.2l-0.5,0.2l-0.5,0.1l-0.5,0.1l-0.5,0.1
		l-0.5,0.1l-0.5,0.1l-0.5,0.1l-0.5,0.1l-0.5,0.1l-0.5,0l-0.5,0l-0.5,0h-0.5l-1,0l-1-0.1l-1-0.1l-1-0.2l-1-0.2l-1-0.3l-0.9-0.3
		l-0.9-0.4l-0.9-0.4l-0.9-0.5L124,38l-0.8-0.5l-0.8-0.6l-0.8-0.6l-0.7-0.6l-0.7-0.7l-0.7-0.7l-0.6-0.7l-0.6-0.8l-0.6-0.8l-0.5-0.8
		l-0.5-0.8l-0.5-0.9c-1.6-3.5-2.2-7-1.9-10.8c0.5-4.1,1.9-7.6,4.5-10.8c3.9-4.4,8.7-6.9,14.6-7.3C140.1,0.2,145,2.7,149.7,7.2
		L149.7,7.2z"/>
	<path class="st2" d="M13.6,15H4.5V19h9.1c0.7,0,1.2-0.1,1.4-0.3c0.3-0.2,0.4-0.5,0.4-1v-1.6c0-0.5-0.1-0.8-0.4-1
		C14.8,15.1,14.3,15,13.6,15L13.6,15z M13.6,21.9H4.5v4.4h9.1c0.8,0,1.3-0.1,1.5-0.3c0.3-0.2,0.4-0.6,0.4-1.2v-1.3
		c0-0.6-0.1-1-0.4-1.2C14.9,22,14.4,21.9,13.6,21.9L13.6,21.9z M0.6,29.3V12.1h14.7c1.3,0,2.3,0.3,2.9,0.8c0.6,0.5,0.9,1.4,0.9,2.5
		v2.1c0,0.8-0.3,1.5-0.8,2c-0.5,0.5-1.3,0.8-2.2,0.9c1,0.1,1.7,0.5,2.3,1.1c0.6,0.6,0.8,1.3,0.8,2.2V26c0,1.1-0.4,1.9-1.3,2.5
		c-0.8,0.6-2.1,0.8-3.8,0.8H0.6z"/>
	<polygon class="st2" points="27,29.3 27,12.1 31,12.1 31,29.3 	"/>
	<path class="st2" d="M54.1,15.2H42.9v3.7h10.7c1.7,0,2.8,0.3,3.4,0.9c0.6,0.6,0.8,1.7,0.8,3.2v2.4c0,1.6-0.3,2.6-0.8,3.2
		c-0.6,0.6-1.8,0.9-3.4,0.9H43c-1.7,0-2.8-0.3-3.4-0.9c-0.6-0.6-0.9-1.6-0.9-3.2v-0.5h3.5v1.3h12.1v-3.9H43.6
		c-1.7,0-2.8-0.3-3.4-0.9c-0.6-0.6-0.9-1.6-0.9-3.2v-1.9c0-1.6,0.3-2.6,0.9-3.2c0.6-0.6,1.7-0.9,3.4-0.9h9.7c1.6,0,2.8,0.3,3.4,0.8
		c0.6,0.6,0.9,1.5,0.9,2.9v0.4h-3.5V15.2z"/>
	<path class="st2" d="M80.4,15.2H69.2v3.7h10.7c1.7,0,2.8,0.3,3.4,0.9c0.6,0.6,0.8,1.7,0.8,3.2v2.4c0,1.6-0.3,2.6-0.8,3.2
		c-0.6,0.6-1.8,0.9-3.4,0.9H69.3c-1.7,0-2.8-0.3-3.4-0.9c-0.6-0.6-0.9-1.6-0.9-3.2v-0.5l3.5,0l0.1,1.3h12.1v-3.9H69.9
		c-1.7,0-2.8-0.3-3.4-0.9c-0.6-0.6-0.9-1.6-0.9-3.2v-1.9c0-1.6,0.3-2.6,0.9-3.2c0.6-0.6,1.7-0.9,3.4-0.9h9.8c1.6,0,2.7,0.3,3.3,0.8
		c0.6,0.6,0.9,1.5,0.9,2.9v0.4l-3.5,0V15.2z"/>
	<polygon class="st2" points="93,29.3 93,12.1 110.6,12.1 110.6,15.1 97,15.1 97,18.9 105,18.9 105,21.9 97,21.9 97,26.1 
		110.8,26.1 110.8,29.3 	"/>
	<polygon class="st2" points="161.7,15.2 161.7,29.3 157.7,29.3 157.7,15.2 149.9,15.2 149.9,12.1 169.7,12.1 169.7,15.2 	"/>
	<path class="st2" d="M188.5,15.1h-9v4.8h9c0.7,0,1.2-0.1,1.5-0.3c0.2-0.2,0.4-0.6,0.4-1.1v-2.1c0-0.5-0.1-0.9-0.4-1.1
		C189.7,15.2,189.2,15.1,188.5,15.1L188.5,15.1z M175.6,29.3V12.1h14.7c1.3,0,2.3,0.3,3,0.8c0.6,0.5,0.9,1.4,0.9,2.6v4
		c0,1.1-0.3,2-0.9,2.5c-0.6,0.5-1.7,0.8-3,0.8H188l7.9,6.5h-5.7l-6.9-6.5h-3.8v6.5H175.6z"/>
	<polygon class="st2" points="202.3,29.3 202.3,12.1 206.3,12.1 206.3,29.3 	"/>
	<path class="st2" d="M227.4,15.2h-11.2v3.7h10.7c1.7,0,2.8,0.3,3.5,0.9c0.6,0.6,0.8,1.7,0.8,3.2v2.4c0,1.6-0.3,2.6-0.8,3.2
		c-0.6,0.6-1.8,0.9-3.5,0.9h-10.6c-1.7,0-2.8-0.3-3.4-0.9c-0.6-0.6-0.9-1.6-0.9-3.2v-0.5l3.6,0l-0.1,1.3h12.1v-3.9h-10.7
		c-1.7,0-2.8-0.3-3.4-0.9c-0.6-0.6-0.9-1.6-0.9-3.2v-1.9c0-1.6,0.3-2.6,0.9-3.2c0.6-0.6,1.7-0.9,3.4-0.9h9.7c1.6,0,2.8,0.3,3.4,0.8
		c0.6,0.6,0.9,1.5,0.9,2.9v0.4h-3.5V15.2z"/>
	<path class="st2" d="M243.1,22.5h7.5l-3.7-7L243.1,22.5z M235.4,29.3l9.7-17.2h3.9l9.8,17.2h-4.5l-2-3.8h-10.9l-2,3.8H235.4z"/>
	<path class="st0" d="M134.4,1.8c5.2,0,9.9,2.1,13.3,5.5L144,11c-2.5-2.4-5.8-3.9-9.6-3.9c-7.5,0-13.5,6.1-13.5,13.6
		s6.1,13.5,13.5,13.5c3.7,0,7.1-1.5,9.6-3.9l3.8,3.8c-3.4,3.4-8.1,5.5-13.3,5.5c-10.4,0-18.8-8.4-18.8-18.8
		C115.6,10.2,124.1,1.8,134.4,1.8L134.4,1.8z"/>
	<path class="st3" d="M134.4,8.6c3.3,0,6.3,1.3,8.4,3.5l-2.3,2.3c-1.6-1.6-3.7-2.5-6.1-2.5c-4.8,0-8.7,3.9-8.7,8.7
		c0,4.8,3.9,8.7,8.7,8.7c2.4,0,4.5-0.9,6.1-2.5l2.3,2.4c-2.2,2.1-5.1,3.5-8.4,3.5c-6.6,0-12-5.4-12-12C122.5,14,127.8,8.6,134.4,8.6
		L134.4,8.6z"/>
</g>
</svg>
