<?xml version="1.0" encoding="utf-8"?>
<!-- Generator: Adobe Illustrator 21.0.0, SVG Export Plug-In . SVG Version: 6.00 Build 0)  -->
<svg version="1.1" id="Layer_1" xmlns="http://www.w3.org/2000/svg" xmlns:xlink="http://www.w3.org/1999/xlink" x="0px" y="0px"
	 width="25px" height="18px" viewBox="0 0 25 18" style="enable-background:new 0 0 25 18;" xml:space="preserve">
<style type="text/css">
	.st0{fill:#A9A9A9;}
</style>
<path class="st0" d="M23.9,0.3H1.1c-0.4,0-0.8,0.3-0.8,0.8v15.8c0,0.4,0.3,0.8,0.8,0.8h22.8c0.4,0,0.8-0.3,0.8-0.8V1.1
	C24.7,0.7,24.3,0.3,23.9,0.3z M23.2,13.7l-5.7-4.6l5.7-4.6V13.7z M23.2,1.8v0.7l-10.7,8.6L1.8,2.5V1.8H23.2z M1.8,4.4l5.7,4.6
	l-5.7,4.6V4.4z M1.8,16.2v-0.6L8.8,10l3.3,2.6c0.1,0.1,0.3,0.2,0.5,0.2s0.3-0.1,0.5-0.2l3.3-2.6l6.9,5.6v0.6H1.8z"/>
</svg>
