<?xml version="1.0" encoding="utf-8"?>
<!-- Generator: Adobe Illustrator 21.0.0, SVG Export Plug-In . SVG Version: 6.00 Build 0)  -->
<svg version="1.1" id="Layer_1" xmlns="http://www.w3.org/2000/svg" xmlns:xlink="http://www.w3.org/1999/xlink" x="0px" y="0px"
	 width="19px" height="26px" viewBox="0 0 19 26" style="enable-background:new 0 0 19 26;" xml:space="preserve">
<style type="text/css">
	.st0{fill:#A9A9A9;}
</style>
<g>
	<g>
		<path class="st0" d="M9.5,25.9c-0.3,0-0.5-0.1-0.7-0.3C7.9,24.4,0.1,14.3,0.1,9.4c0-5.2,4.2-9.4,9.4-9.4s9.4,4.2,9.4,9.4
			c0,4.8-7.8,15-8.7,16.1C10,25.8,9.8,25.9,9.5,25.9z M9.5,1.9c-4.2,0-7.6,3.4-7.6,7.6c0,3.3,4.9,10.6,7.6,14.1
			c2.6-3.5,7.6-10.8,7.6-14.1C17.1,5.3,13.7,1.9,9.5,1.9z"/>
	</g>
	<g>
		<path class="st0" d="M9.5,14.6c-2.9,0-5.2-2.3-5.2-5.2s2.3-5.2,5.2-5.2s5.2,2.3,5.2,5.2S12.4,14.6,9.5,14.6z M9.5,6
			C7.6,6,6.1,7.6,6.1,9.4s1.5,3.4,3.4,3.4c1.9,0,3.4-1.5,3.4-3.4S11.4,6,9.5,6z"/>
	</g>
</g>
</svg>
