<?xml version="1.0" encoding="utf-8"?>
<!-- Generator: Adobe Illustrator 21.0.0, SVG Export Plug-In . SVG Version: 6.00 Build 0)  -->
<svg version="1.1" id="Layer_1" xmlns="http://www.w3.org/2000/svg" xmlns:xlink="http://www.w3.org/1999/xlink" x="0px" y="0px"
	 width="87px" height="87px" viewBox="0 0 87 87" style="enable-background:new 0 0 87 87;" xml:space="preserve">
<style type="text/css">
	.st0{fill-rule:evenodd;clip-rule:evenodd;fill:#FFFFFF;}
	.st1{fill-rule:evenodd;clip-rule:evenodd;fill:#EC1C24;}
	.st2{fill-rule:evenodd;clip-rule:evenodd;fill:#231F20;stroke:#0B1014;stroke-width:0.3327;stroke-miterlimit:10;}
</style>
<g>
	<circle class="st0" cx="43.5" cy="43.5" r="43.1"/>
	<g>
		<path class="st1" d="M73.9,18.6l-11,11l-6.6,6.6c-0.5-0.5-1-1-1.5-1.4l6.5-6.5l10.9-11c-0.6-0.6-1.1-1.1-1.7-1.6
			C71.6,16.5,72.7,17.5,73.9,18.6L73.9,18.6z M54.1,34.1c-3.7-3.1-7.5-4.6-12.9-3.4c-6.2,1.8-10.3,7-10.4,13.5
			c0.1,3.8,1.6,7.2,4,9.7c-3.3-2.5-5.4-6.5-5.6-11.1c0.2-6.5,4.2-11.7,10.4-13.5C45.8,27.9,49.8,30.1,54.1,34.1L54.1,34.1z M56,52.2
			c0.4-0.4,0.8-0.8,1.2-1.2l8.5,8.3l0,0l9.3,9.3C65.6,78,56.3,83.2,42.6,82.9c-8.9-0.7-16.8-3.9-23.1-9.3l0.4,0.2l1.5,1.1l1.6,1
			l1.6,0.9l1.7,0.9l1.7,0.8l1.7,0.7l1.8,0.6l1.9,0.5l1.9,0.4l1.9,0.4l1.9,0.2l2,0.1l2,0.1h1l1-0.1l1-0.1l1-0.1l1-0.1l0.9-0.1l1-0.2
			l0.9-0.2l0.9-0.2l0.9-0.2l0.9-0.2l0.9-0.2l0.9-0.3l0.9-0.3l0.9-0.3l0.9-0.4l0.9-0.4l0.9-0.4l0.8-0.4l0.8-0.4l0.9-0.4l0.8-0.5
			l0.7-0.5l0.8-0.5l0.7-0.6l0.7-0.5l0.7-0.6l0.7-0.6l0.7-0.6l0.7-0.6l0.7-0.6l2.5-2.5L63,59.2l0,0L56,52.2z"/>
		<path class="st0" d="M72.2,17.2L54.7,34.8c-4.5-4.3-8.7-6.9-15.1-5.4c-6.2,1.8-10.3,7-10.4,13.5c0.2,7.5,5.7,13.3,13.2,13.9
			c5.4,0.1,8.6-2.2,12.4-5.8l8.3,8.2l0,0l9.2,9.3L69.7,71L69,71.6l-0.7,0.6l-0.7,0.6l-0.7,0.6L66.1,74l-0.7,0.5L64.6,75l-0.8,0.5
			L63.1,76l-0.8,0.5l-0.9,0.4l-0.8,0.4l-0.8,0.4L59,78.2l-0.9,0.4l-0.9,0.4l-0.9,0.3l-0.9,0.3l-0.9,0.3l-0.9,0.2l-0.9,0.2l-0.9,0.2
			l-0.9,0.2l-0.9,0.2l-1,0.2L48,81.2l-1,0.1l-1,0.1l-1,0.1l-1,0.1h-1l-2-0.1l-2-0.1l-1.9-0.2l-1.9-0.4l-1.9-0.4l-1.9-0.5l-1.8-0.6
			L28,78.5l-1.7-0.8l-1.7-0.9L23,75.9l-1.6-1l-1.5-1.1l-1.5-1.1L17,71.5l-1.3-1.3l-1.3-1.3l-1.2-1.4L12.1,66L11,64.5l-1-1.6
			l-0.9-1.6l-0.9-1.7c-3-6.7-4.2-13.4-3.6-20.7c1-7.9,3.7-14.5,8.6-20.7C20.6,9.7,29.9,5,41.1,4.1C53.9,3.8,63.3,8.5,72.2,17.2
			L72.2,17.2z"/>
		<path class="st1" d="M43.1,6.8c9.9,0,18.9,4,25.4,10.4l-7.2,7.2c-4.7-4.6-11.1-7.5-18.2-7.5c-14.3,0-25.8,11.6-25.8,25.9
			s11.6,25.8,25.8,25.8c7.1,0,13.5-2.8,18.2-7.5l7.2,7.2C61.9,74.9,53,78.8,43.1,78.8c-19.8,0-36-16.1-36-36
			C7.1,22.9,23.2,6.8,43.1,6.8L43.1,6.8z"/>
		<path class="st2" d="M43.1,19.9c6.3,0,12,2.5,16.1,6.6L54.7,31c-3-3-7.1-4.8-11.7-4.8c-9.2,0-16.6,7.4-16.6,16.6
			c0,9.2,7.4,16.6,16.6,16.6c4.6,0,8.7-1.8,11.7-4.8l4.5,4.5c-4.1,4.1-9.8,6.6-16.1,6.6c-12.6,0-22.9-10.3-22.9-22.9
			C20.2,30.2,30.5,19.9,43.1,19.9L43.1,19.9z"/>
	</g>
</g>
</svg>
