<svg xmlns="http://www.w3.org/2000/svg" viewBox="0 0 66.09 66.09"><defs><style>.cls-1{fill:none;stroke:#a7a9ac;stroke-linecap:round;stroke-linejoin:round;stroke-width:2.83px;}</style></defs><title>order</title><g id="Слой_2" data-name="Слой 2"><g id="Layer_1" data-name="Layer 1"><path class="cls-1" d="M58.19,21.88l4-4a5.69,5.69,0,0,0,0-8l-6-6.05a5.7,5.7,0,0,0-8,0l-4,4Z"/><polygon class="cls-1" points="36.39 15.56 4.89 47.06 3.69 62.25 18.95 61.12 50.45 29.62 36.39 15.56"/><rect class="cls-1" x="35.35" y="13.21" width="23.82" height="10.95" transform="translate(27.05 -27.94) rotate(45)"/><line class="cls-1" x1="17.37" y1="53.23" x2="45.16" y2="25.44"/><line class="cls-1" x1="12.71" y1="48.57" x2="40.54" y2="20.74"/><polyline class="cls-1" points="4.89 47.06 12.71 48.57 17.37 53.23 18.95 61.12"/><line class="cls-1" x1="4.96" y1="55.56" x2="10.6" y2="61.2"/><path class="cls-1" d="M19,33,1.83,15.89a1.42,1.42,0,0,1,0-2L13.89,1.83a1.42,1.42,0,0,1,2,0L33,19"/><path class="cls-1" d="M47.06,33,64.26,50.2a1.42,1.42,0,0,1,0,2L52.2,64.26a1.42,1.42,0,0,1-2,0L33,47.06"/><line class="cls-1" x1="15.07" y1="7.26" x2="18.2" y2="4.14"/><line class="cls-1" x1="17.53" y1="12.62" x2="22.1" y2="8.05"/><line class="cls-1" x1="22.89" y1="15.08" x2="26.01" y2="11.96"/><line class="cls-1" x1="25.35" y1="20.43" x2="29.92" y2="15.86"/><line class="cls-1" x1="47.17" y1="39.36" x2="50.3" y2="36.24"/><line class="cls-1" x1="49.64" y1="44.72" x2="54.21" y2="40.15"/><line class="cls-1" x1="54.99" y1="47.18" x2="58.12" y2="44.06"/><line class="cls-1" x1="57.46" y1="52.54" x2="62.03" y2="47.97"/></g></g></svg>