<?xml version="1.0" encoding="utf-8"?><svg xmlns="http://www.w3.org/2000/svg" xmlns:xlink="http://www.w3.org/1999/xlink"><symbol viewBox="0 0 19 15" id="arrow-left" xmlns="http://www.w3.org/2000/svg"><path d="M18 6.5H3.9l4.3-4.3c.4-.4.4-1 0-1.4s-1-.4-1.4 0l-6 6-.8.7.7.7 6 6c.2.2.5.3.7.3s.5-.1.7-.3c.4-.4.4-1 0-1.4L3.9 8.5H18c.6 0 1-.4 1-1s-.5-1-1-1z"/></symbol><symbol id="arrow-long-right" xml:space="preserve" viewBox="0 0 23 12" xmlns="http://www.w3.org/2000/svg"><style>.bst0{fill:#ed1c24}</style><path class="bst0" d="M16.8 11.7c-.2 0-.4-.1-.6-.2-.3-.3-.3-.9 0-1.2L20.4 6l-4.2-4.2c-.3-.3-.3-.9 0-1.2.3-.3.9-.3 1.2 0L22.8 6l-5.4 5.4c-.2.2-.4.3-.6.3z"/><path class="bst0" d="M21.6 6.9H1C.5 6.9.2 6.5.2 6s.3-.8.8-.8h20.6c.5 0 .8.4.8.9s-.3.8-.8.8z"/></symbol><symbol viewBox="0 0 19 15" id="arrow-right" xmlns="http://www.w3.org/2000/svg"><path d="M1 6.5h14.1l-4.3-4.3c-.4-.4-.4-1 0-1.4s1-.4 1.4 0l6 6 .8.7-.7.7-6 6c-.2.2-.5.3-.7.3s-.5-.1-.7-.3c-.4-.4-.4-1 0-1.4l4.3-4.3H1c-.6 0-1-.4-1-1s.5-1 1-1z"/></symbol><symbol viewBox="0 0 344.96 344.96" id="check" xmlns="http://www.w3.org/2000/svg"><g data-name="Слой 2"><path d="M321.85 86.24l-40-23.11-23.1-40H212.5L172.48 0l-40 23.11H86.24l-23.11 40-40 23.1v46.21L0 172.48l23.11 40v46.21l40 23.11 23.11 40h46.21l40 23.1 40-23.11h46.21l23.11-40 40-23.11V212.5l23.11-40-23.11-40V86.24zM156.91 243.07a16.79 16.79 0 0 1-23.34 0l-50.45-50.44a16.19 16.19 0 0 1 0-22.89l13.35-13.35a16.19 16.19 0 0 1 22.89 0l25.87 25.87 80.34-80.35a16.19 16.19 0 0 1 22.89 0l13.35 13.35a16.19 16.19 0 0 1 0 22.89z" data-name="Capa 1"/></g></symbol><symbol viewBox="0 0 12.58 7.56" id="chevron-down" xmlns="http://www.w3.org/2000/svg"><g data-name="Слой 2"><path stroke-linecap="round" stroke-miterlimit="10" stroke-width="1.79" d="M.9.9l5.39 5.39L11.68.9" data-name="Layer 1"/></g></symbol><symbol class="fsvg-inline--fa ffa-envelope ffa-w-16" viewBox="0 0 512 512" id="email" xmlns="http://www.w3.org/2000/svg"><path d="M464 64H48C21.49 64 0 85.49 0 112v288c0 26.51 21.49 48 48 48h416c26.51 0 48-21.49 48-48V112c0-26.51-21.49-48-48-48zm0 48v40.805c-22.422 18.259-58.168 46.651-134.587 106.49-16.841 13.247-50.201 45.072-73.413 44.701-23.208.375-56.579-31.459-73.413-44.701C106.18 199.465 70.425 171.067 48 152.805V112h416zM48 400V214.398c22.914 18.251 55.409 43.862 104.938 82.646 21.857 17.205 60.134 55.186 103.062 54.955 42.717.231 80.509-37.199 103.053-54.947 49.528-38.783 82.032-64.401 104.947-82.653V400H48z"/></symbol><symbol viewBox="0 0 10.24 17.82" id="fb" xmlns="http://www.w3.org/2000/svg"><g data-name="Слой 2"><path d="M10.24 0v2.66H8.46c-.68 0-1.78.65-1.78 1.41v2h3.26v2.44H6.68v9.31H3.34V8.53H0V6h3.09V4.37C3.09 2.56 4.42 0 6.88 0z" data-name="Layer 1"/></g></symbol><symbol viewBox="0 0 512 512" id="inst" xmlns="http://www.w3.org/2000/svg"><path d="M256 49.5c67.3 0 75.2.3 101.8 1.5 24.6 1.1 37.9 5.2 46.8 8.7 10.9 4 20.8 10.5 29 18.8 8.4 8.1 14.8 18 18.8 29 3.5 8.9 7.6 22.2 8.7 46.8 1.2 26.6 1.5 34.5 1.5 101.8s-.3 75.2-1.5 101.8c-1.1 24.6-5.2 37.9-8.7 46.8-8.5 22-25.8 39.3-47.8 47.8-8.9 3.5-22.2 7.6-46.8 8.7-26.6 1.2-34.5 1.5-101.8 1.5s-75.2-.3-101.8-1.5c-24.6-1.1-37.9-5.2-46.8-8.7-10.9-4-20.8-10.5-29-18.8-8.4-8.1-14.8-18-18.8-29-3.5-8.9-7.6-22.2-8.7-46.8-1.2-26.6-1.5-34.5-1.5-101.8s.3-75.2 1.5-101.8c1.1-24.6 5.2-37.9 8.7-46.8 4-10.9 10.5-20.8 18.8-29 8.1-8.4 18-14.8 29-18.8 8.9-3.5 22.2-7.6 46.8-8.7 26.6-1.3 34.5-1.5 101.8-1.5m0-45.4c-68.4 0-77 .3-103.9 1.5C125.3 6.8 107 11.1 91 17.3c-16.8 6.3-32 16.2-44.6 29.1C33.5 58.9 23.6 74.2 17.3 91c-6.2 16-10.5 34.3-11.7 61.2C4.4 179 4.1 187.6 4.1 256s.3 77 1.5 103.9c1.2 26.8 5.5 45.1 11.7 61.2 6.3 16.8 16.2 32 29.1 44.6 12.6 12.8 27.8 22.7 44.6 29 16 6.2 34.3 10.5 61.2 11.7 26.9 1.2 35.4 1.5 103.9 1.5s77-.3 103.9-1.5c26.8-1.2 45.1-5.5 61.2-11.7 33.8-13.1 60.6-39.8 73.7-73.7 6.2-16 10.5-34.3 11.7-61.2 1.2-26.9 1.5-35.4 1.5-103.9s-.3-77-1.5-103.9c-1.2-26.8-5.5-45.1-11.7-61.2-6.3-16.8-16.2-32-29.1-44.6-12.6-12.8-27.8-22.7-44.6-29.1-16-6.2-34.3-10.5-61.2-11.7-27-1-35.6-1.3-104-1.3z"/><path d="M256 126.6c-71.4 0-129.4 57.9-129.4 129.4s58 129.4 129.4 129.4 129.4-58 129.4-129.4-58-129.4-129.4-129.4zm0 213.4c-46.4 0-84-37.6-84-84s37.6-84 84-84 84 37.6 84 84-37.6 84-84 84z"/><circle cx="390.5" cy="121.5" r="30.2"/></symbol><symbol viewBox="0 0 17.25 17.25" id="insta" xmlns="http://www.w3.org/2000/svg"><defs><style>.icls-1{fill:none;stroke:#4c4c4c;stroke-linecap:round;stroke-miterlimit:10;stroke-width:1.51px}</style></defs><g id="iСлой_2" data-name="Слой 2"><g id="iLayer_1" data-name="Layer 1"><rect class="icls-1" x=".76" y=".76" width="15.73" height="15.73" rx="3.72"/><circle class="icls-1" cx="8.62" cy="8.62" r="4.33"/><circle cx="13.53" cy="3.72" r=".58" stroke-width="1.07" stroke-linecap="round" stroke-miterlimit="10"/></g></g></symbol><symbol class="jsvg-inline--fa jfa-youtube jfa-w-18" viewBox="0 0 576 512" id="play" xmlns="http://www.w3.org/2000/svg"><path d="M549.655 124.083c-6.281-23.65-24.787-42.276-48.284-48.597C458.781 64 288 64 288 64S117.22 64 74.629 75.486c-23.497 6.322-42.003 24.947-48.284 48.597-11.412 42.867-11.412 132.305-11.412 132.305s0 89.438 11.412 132.305c6.281 23.65 24.787 41.5 48.284 47.821C117.22 448 288 448 288 448s170.78 0 213.371-11.486c23.497-6.321 42.003-24.171 48.284-47.821 11.412-42.867 11.412-132.305 11.412-132.305s0-89.438-11.412-132.305zm-317.51 213.508V175.185l142.739 81.205-142.739 81.201z"/></symbol><symbol viewBox="0 0 14 13" id="star" xmlns="http://www.w3.org/2000/svg"><path d="M7 .1l2.1 4.2 4.6.7-3.3 3.3.7 4.6L7 10.7l-4.1 2.2.7-4.6L.3 5l4.6-.7z"/></symbol><symbol viewBox="0 0 11.96 11.96" id="tel" xmlns="http://www.w3.org/2000/svg"><g data-name="Слой 2"><path d="M3 8.66l.13.14.14.14C4.4 10 8.55 13.65 11.15 11c1.44-1.43.64-2 .07-2.59S10 7 8.49 8s-1.68 1.73-4-.52S3.09 4.92 4 3.47s.09-2.16-.49-2.72S2.35-.63.92.81C-1.69 3.41 2 7.56 3 8.66z" data-name="Layer 1"/></g></symbol><symbol viewBox="0 0 21.06 11.78" id="vk" xmlns="http://www.w3.org/2000/svg"><g data-name="Слой 2"><path d="M11.79 11.19H9.55C8.41 11.19 5.06 11.78 0 1 0 1-.19.59 1.78.59s2.43.1 2.69.62a27.78 27.78 0 0 0 2.3 4c.62.65.85.54 1.05.48s.52-.74.52-2.45S7.42.85 7.06.85 7 0 9.72 0s2.56.75 2.56.75a42.67 42.67 0 0 0 0 4.57c.16.85.72.72 1.38-.1a23.7 23.7 0 0 0 2.23-3.71c.36-.85 1.05-.85 1.67-.85h2.79c.49 0 1 .39.33 1.37s-2.63 3.65-2.92 4.11-.36.82.29 1.41a19.46 19.46 0 0 1 3 3.25c.22.59-.54 1-1.13 1h-3.28c-.62 0-1.47-.85-1.93-1.38S13.43 9 13.1 9s-.76.75-.76 1.21-.16.98-.55.98z" data-name="Layer 1"/></g></symbol><symbol id="whatsapp" xml:space="preserve" viewBox="0 0 19 19" xmlns="http://www.w3.org/2000/svg"><style>.nst0{fill:#4c4c4c}</style><path class="nst0" d="M7.1 11.7l.1.1c.1.1.1.2.1.2.9.9 4.5 3.8 6.6 1.6 1.2-1.2.5-1.7 0-2.2-.5-.5-1.1-1.2-2.3-.4-1.2.8-1.4 1.5-3.3-.3-1.9-1.9-1.2-2.1-.5-3.3.7-1.3 0-1.8-.5-2.3-.5-.5-1-1.1-2.2.1-2.1 2.3 1.1 5.7 2 6.5z"/><path class="nst0" d="M.1 19l1.4-4.5C.6 13 .1 11.3.1 9.5.1 4.2 4.3 0 9.5 0s9.4 4.2 9.4 9.4-4.2 9.4-9.4 9.4c-1.7 0-3.3-.5-4.8-1.3L.1 19zm4.8-3.1l.3.2c1.3.8 2.8 1.3 4.3 1.3 4.4 0 7.9-3.5 7.9-7.9s-3.5-7.9-7.9-7.9-7.9 3.5-7.9 7.9c0 1.6.5 3.1 1.4 4.5l.2.3-.8 2.4 2.5-.8z"/></symbol></svg>