<?xml version="1.0" encoding="utf-8"?>
<!-- Generator: Adobe Illustrator 21.0.0, SVG Export Plug-In . SVG Version: 6.00 Build 0)  -->
<svg version="1.1" id="Layer_1" xmlns="http://www.w3.org/2000/svg" xmlns:xlink="http://www.w3.org/1999/xlink" x="0px" y="0px"
	 width="23px" height="23px" viewBox="0 0 23 23" style="enable-background:new 0 0 23 23;" xml:space="preserve">
<style type="text/css">
	.st0{fill:#A9A9A9;}
</style>
<g>
	<path class="st0" d="M16.8,22.9c-4.4,0-8.9-4-10.6-5.6l0,0c0,0-0.1-0.1-0.1-0.1l-0.6-0.6C3,14-3,6.7,1.9,1.7
		c1.1-1.1,2.2-1.7,3.1-1.7c0,0,0,0,0,0c1.2,0,2,0.8,2.5,1.4L8,1.8c1,1,2.7,2.7,0.8,5.7c-0.2,0.4-0.5,0.7-0.7,1
		c-1.1,1.5-1.4,1.9,1.5,4.9c2.9,2.9,3.3,2.6,4.9,1.5c0.3-0.2,0.6-0.5,1-0.7c3.1-1.9,4.7-0.2,5.7,0.8l0.4,0.4
		c0.6,0.6,1.4,1.3,1.4,2.5c0,1-0.5,2-1.7,3.1C19.9,22.4,18.3,22.9,16.8,22.9z M7.1,15.8l0.3,0.3c1.9,1.9,8.6,7.7,12.6,3.7
		c1-1,1.2-1.5,1.2-1.9c0-0.4-0.3-0.7-0.8-1.2l-0.4-0.4c-1-1-1.7-1.7-3.5-0.5c-0.4,0.2-0.7,0.4-0.9,0.6c-2.3,1.6-3.5,1.9-7.2-1.7
		C4.7,11.1,5,9.8,6.6,7.5c0.2-0.3,0.4-0.6,0.6-1c1.2-1.8,0.4-2.5-0.5-3.5L6.3,2.7C5.8,2.2,5.5,1.9,5.1,1.9C4.8,1.9,4.2,2.1,3.2,3
		c-4,4,1.8,10.6,3.7,12.6L7.1,15.8z"/>
</g>
</svg>
