<?xml version="1.0" encoding="utf-8"?>
<!-- Generator: Adobe Illustrator 21.0.0, SVG Export Plug-In . SVG Version: 6.00 Build 0)  -->
<svg version="1.1" id="Layer_1" xmlns="http://www.w3.org/2000/svg" xmlns:xlink="http://www.w3.org/1999/xlink" x="0px" y="0px"
	 width="23px" height="22px" viewBox="0 0 23 22" style="enable-background:new 0 0 23 22;" xml:space="preserve">
<style type="text/css">
	.st0{fill:#A7A9AC;}
</style>
<g>
	<g>
		<path class="st0" d="M18.6,21.9c-0.2,0-0.4-0.1-0.5-0.2l-5.1-5.1H0.8c-0.4,0-0.8-0.3-0.8-0.8v-15c0-0.4,0.3-0.8,0.8-0.8h21.3
			c0.4,0,0.8,0.3,0.8,0.8v15c0,0.4-0.3,0.8-0.8,0.8h-2.8v4.6c0,0.3-0.2,0.6-0.5,0.7C18.8,21.9,18.7,21.9,18.6,21.9z M1.6,15.1h11.6
			c0.2,0,0.4,0.1,0.5,0.2l4.1,4.1v-3.5c0-0.4,0.3-0.8,0.8-0.8h2.8V1.6H1.6V15.1z"/>
	</g>
	<g>
		<g>
			<path class="st0" d="M18.2,5.6H4.8C4.3,5.6,4,5.3,4,4.9s0.3-0.8,0.8-0.8h13.5c0.4,0,0.8,0.3,0.8,0.8S18.7,5.6,18.2,5.6z"/>
		</g>
		<g>
			<path class="st0" d="M18.2,8.8H4.8C4.3,8.8,4,8.5,4,8.1s0.3-0.8,0.8-0.8h13.5c0.4,0,0.8,0.3,0.8,0.8S18.7,8.8,18.2,8.8z"/>
		</g>
		<g>
			<path class="st0" d="M14.2,12H4.8C4.3,12,4,11.7,4,11.3s0.3-0.8,0.8-0.8h9.5c0.4,0,0.8,0.3,0.8,0.8S14.7,12,14.2,12z"/>
		</g>
	</g>
</g>
</svg>
