<?xml version="1.0" encoding="utf-8"?>
<!-- Generator: Adobe Illustrator 21.0.0, SVG Export Plug-In . SVG Version: 6.00 Build 0)  -->
<svg version="1.1" id="Layer_1" xmlns="http://www.w3.org/2000/svg" xmlns:xlink="http://www.w3.org/1999/xlink" x="0px" y="0px"
	 width="24px" height="23px" viewBox="0 0 24 23" style="enable-background:new 0 0 24 23;" xml:space="preserve">
<style type="text/css">
	.st0{fill:#A9A9A9;}
</style>
<g>
	<path class="st0" d="M22.6,22.6H1.4c-0.5,0-0.9-0.4-0.9-0.9c0-4.6,2.7-8.7,6.8-10.5C6.2,10,5.6,8.5,5.6,6.8c0-3.5,2.9-6.4,6.4-6.4
		s6.4,2.9,6.4,6.4c0,1.7-0.6,3.2-1.8,4.4c4.1,1.8,6.8,5.9,6.8,10.5C23.5,22.2,23.1,22.6,22.6,22.6z M2.3,20.8h19.3
		c-0.4-3.9-3.2-7.3-7-8.4C14.3,12.3,14,12,14,11.6c0-0.4,0.1-0.7,0.4-0.9c1.4-0.9,2.2-2.3,2.2-3.9c0-2.6-2.1-4.6-4.6-4.6
		c-2.6,0-4.6,2.1-4.6,4.6c0,1.6,0.8,3.1,2.2,3.9c0.3,0.2,0.5,0.5,0.4,0.9c0,0.4-0.3,0.6-0.6,0.7C5.5,13.5,2.7,16.9,2.3,20.8z"/>
</g>
</svg>
