<?xml version="1.0" encoding="utf-8"?>
<!-- Generator: Adobe Illustrator 21.0.0, SVG Export Plug-In . SVG Version: 6.00 Build 0)  -->
<svg version="1.1" id="Layer_1" xmlns="http://www.w3.org/2000/svg" xmlns:xlink="http://www.w3.org/1999/xlink" x="0px" y="0px"
	 width="19px" height="15px" viewBox="0 0 19 15" style="enable-background:new 0 0 19 15;" xml:space="preserve">
<style type="text/css">
	.st0{fill:#231F20;}
</style>
<path class="st0" d="M1,6.5h14.1l-4.3-4.3c-0.4-0.4-0.4-1,0-1.4s1-0.4,1.4,0l6,6c0,0,0,0,0,0L19,7.5l-0.7,0.7c0,0,0,0,0,0l-6,6
	c-0.2,0.2-0.5,0.3-0.7,0.3s-0.5-0.1-0.7-0.3c-0.4-0.4-0.4-1,0-1.4l4.3-4.3H1c-0.6,0-1-0.4-1-1S0.5,6.5,1,6.5z"/>
</svg>
