<?xml version="1.0" encoding="utf-8"?>
<!-- Generator: Adobe Illustrator 21.0.0, SVG Export Plug-In . SVG Version: 6.00 Build 0)  -->
<svg version="1.1" id="Layer_1" xmlns="http://www.w3.org/2000/svg" xmlns:xlink="http://www.w3.org/1999/xlink" x="0px" y="0px"
	 width="23px" height="12px" viewBox="0 0 23 12" style="enable-background:new 0 0 23 12;" xml:space="preserve">
<style type="text/css">
	.st0{fill:#ED1C24;}
</style>
<g>
	<g>
		<path class="st0" d="M16.8,11.7c-0.2,0-0.4-0.1-0.6-0.2c-0.3-0.3-0.3-0.9,0-1.2L20.4,6l-4.2-4.2c-0.3-0.3-0.3-0.9,0-1.2
			c0.3-0.3,0.9-0.3,1.2,0L22.8,6l-5.4,5.4C17.2,11.6,17,11.7,16.8,11.7z"/>
	</g>
	<g>
		<path class="st0" d="M21.6,6.9H1C0.5,6.9,0.2,6.5,0.2,6S0.5,5.2,1,5.2h20.6c0.5,0,0.8,0.4,0.8,0.9S22.1,6.9,21.6,6.9z"/>
	</g>
</g>
</svg>
