<svg xmlns="http://www.w3.org/2000/svg" viewBox="0 0 21.06 11.78"><defs><style>.cls-1{fill:#4c4c4c;}</style></defs><title>vk</title><g id="Слой_2" data-name="Слой 2"><g id="Layer_1" data-name="Layer 1"><path class="cls-1" d="M11.79,11.19H9.55C8.41,11.19,5.06,11.78,0,1,0,1-.19.59,1.78.59s2.43.1,2.69.62a27.78,27.78,0,0,0,2.3,4c.62.65.85.54,1.05.48s.52-.74.52-2.45S7.42.85,7.06.85,7,0,9.72,0s2.56.75,2.56.75a42.67,42.67,0,0,0,0,4.57c.16.85.72.72,1.38-.1a23.7,23.7,0,0,0,2.23-3.71c.36-.85,1.05-.85,1.67-.85h2.79c.49,0,1,.39.33,1.37s-2.63,3.65-2.92,4.11-.36.82.29,1.41a19.46,19.46,0,0,1,3,3.25c.22.59-.54,1-1.13,1H16.64c-.62,0-1.47-.85-1.93-1.38S13.43,9,13.1,9s-.76.75-.76,1.21S12.18,11.19,11.79,11.19Z"/></g></g></svg>