<?xml version="1.0" encoding="utf-8"?>
<!-- Generator: Adobe Illustrator 21.0.0, SVG Export Plug-In . SVG Version: 6.00 Build 0)  -->
<svg version="1.1" id="Layer_1" xmlns="http://www.w3.org/2000/svg" xmlns:xlink="http://www.w3.org/1999/xlink" x="0px" y="0px"
	 width="19px" height="19px" viewBox="0 0 19 19" style="enable-background:new 0 0 19 19;" xml:space="preserve">
<style type="text/css">
	.st0{fill:#4C4C4C;}
</style>
<g>
	<path class="st0" d="M7.1,11.7L7.1,11.7c0,0,0,0,0.1,0.1C7.3,11.9,7.3,12,7.3,12l0,0c0.9,0.9,4.5,3.8,6.6,1.6
		c1.2-1.2,0.5-1.7,0-2.2c-0.5-0.5-1.1-1.2-2.3-0.4c-1.2,0.8-1.4,1.5-3.3-0.3C6.4,8.8,7.1,8.6,7.8,7.4c0.7-1.3,0-1.8-0.5-2.3
		C6.8,4.6,6.3,4,5.1,5.2C3,7.5,6.2,10.9,7.1,11.7z"/>
	<g>
		<path class="st0" d="M0.1,19l1.4-4.5c-0.9-1.5-1.4-3.2-1.4-5C0.1,4.2,4.3,0,9.5,0s9.4,4.2,9.4,9.4s-4.2,9.4-9.4,9.4
			c-1.7,0-3.3-0.5-4.8-1.3L0.1,19z M4.9,15.9l0.3,0.2c1.3,0.8,2.8,1.3,4.3,1.3c4.4,0,7.9-3.5,7.9-7.9s-3.5-7.9-7.9-7.9
			S1.6,5.1,1.6,9.5c0,1.6,0.5,3.1,1.4,4.5l0.2,0.3l-0.8,2.4L4.9,15.9z"/>
	</g>
</g>
</svg>
